<svg width="200" height="145" viewBox="0 0 200 145" fill="none" xmlns="http://www.w3.org/2000/svg">
<path d="M194.839 1.53048C191.613 -0.147007 187.806 0.110931 184.839 2.17551L109.807 53.7884V10.1109C109.807 6.49796 107.871 3.20757 104.645 1.53048C101.484 -0.147007 97.6129 0.110931 94.645 2.17551L4.19368 64.4337C1.54832 66.3045 0 69.2724 0 72.4336C0 75.5949 1.54832 78.6269 4.19368 80.4336L94.645 142.692C96.3225 143.853 98.2579 144.433 100.129 144.433C101.677 144.433 103.226 144.046 104.645 143.337C107.871 141.659 109.807 138.369 109.807 134.756V91.0789L184.839 142.692C186.452 143.853 188.387 144.433 190.323 144.433C191.871 144.433 193.419 144.046 194.839 143.337C198 141.659 200 138.369 200 134.756V10.1109C200 6.49796 198 3.20757 194.839 1.53048Z" fill="white"/>
</svg>
