<svg width="200" height="168" viewBox="0 0 200 168" fill="none" xmlns="http://www.w3.org/2000/svg">
<path d="M196.942 77.5495L105.275 2.54936C102.792 0.507559 99.342 0.0911525 96.4252 1.46616C93.5252 2.84936 91.667 5.78296 91.667 8.99937V66.4163L13.6082 2.54936C11.1164 0.507559 7.67502 0.0911525 4.75821 1.46616C1.85821 2.84936 0 5.78296 0 8.99937V159C0 162.216 1.85821 165.15 4.75821 166.533C5.90001 167.066 7.12501 167.333 8.33322 167.333C10.225 167.333 12.0914 166.691 13.6082 165.45L91.6666 101.583V159C91.6666 162.216 93.5248 165.15 96.4248 166.533C97.5666 167.066 98.7916 167.333 99.9998 167.333C101.892 167.333 103.758 166.691 105.275 165.45L196.942 90.4495C198.875 88.8663 200 86.4995 200 83.9995C200 81.4995 198.875 79.1331 196.942 77.5495Z" fill="white"/>
</svg>
