<svg width="200" height="255" viewBox="0 0 200 255" fill="none" xmlns="http://www.w3.org/2000/svg">
<path d="M81.8182 27.2727V227.273C81.8182 234.506 78.9448 241.443 73.8302 246.557C68.7156 251.672 61.7786 254.545 54.5455 254.545H27.2727C20.0396 254.545 13.1026 251.672 7.988 246.557C2.87337 241.443 0 234.506 0 227.273V27.2727C0 20.0396 2.87337 13.1026 7.988 7.988C13.1026 2.87337 20.0396 0 27.2727 0H54.5455C61.7786 0 68.7156 2.87337 73.8302 7.988C78.9448 13.1026 81.8182 20.0396 81.8182 27.2727ZM172.727 0H145.455C138.221 0 131.284 2.87337 126.17 7.988C121.055 13.1026 118.182 20.0396 118.182 27.2727V227.273C118.182 234.506 121.055 241.443 126.17 246.557C131.284 251.672 138.221 254.545 145.455 254.545H172.727C179.96 254.545 186.897 251.672 192.012 246.557C197.127 241.443 200 234.506 200 227.273V27.2727C200 20.0396 197.127 13.1026 192.012 7.988C186.897 2.87337 179.96 0 172.727 0Z" fill="white"/>
</svg>
