<svg
        width="48"
        height="48"
        viewBox="0 0 48 48"
        fill="none"
        xmlns="http://www.w3.org/2000/svg"
      >
        <g opacity="0.7">
          <path
            d="M22.375 29.4708L26.6866 27.0008C27.4125 26.5892 27.4125 25.5383 26.6866 25.1158L22.375 22.6458C21.6491 22.2342 20.75 22.765 20.75 23.5883V28.5175C20.75 29.3517 21.6491 29.8825 22.375 29.4708ZM33.75 17.3917H25.5275L28.7125 14.2067C28.9291 13.99 28.9291 13.6542 28.7125 13.4375C28.4958 13.2208 28.16 13.2208 27.9433 13.4375L24 17.3808L20.0566 13.4375C19.84 13.2208 19.5041 13.2208 19.2875 13.4375C19.0708 13.6542 19.0708 13.99 19.2875 14.2067L22.4725 17.3917H14.25C13.0583 17.3917 12.0833 18.3558 12.0833 19.5583V32.5583C12.0833 33.75 13.0583 34.725 14.25 34.725H33.75C34.9416 34.725 35.9166 33.75 35.9166 32.5583V19.5583C35.9166 18.3558 34.9416 17.3917 33.75 17.3917ZM32.6666 32.5583H15.3333C14.7375 32.5583 14.25 32.0708 14.25 31.475V20.6417C14.25 20.0458 14.7375 19.5583 15.3333 19.5583H32.6666C33.2625 19.5583 33.75 20.0458 33.75 20.6417V31.475C33.75 32.0708 33.2625 32.5583 32.6666 32.5583Z"
            fill="red"
          />
        </g>
      </svg>