<svg width="201" height="225" viewBox="0 0 201 225" fill="none" xmlns="http://www.w3.org/2000/svg">
<path d="M124.693 1.01587C117 -1.57364 108.026 1.01587 101.616 6.19465L61.8722 46.3308C52.8978 56.6886 40.0772 61.8674 25.9745 61.8674C11.8719 61.8674 0.333313 72.2251 0.333313 86.467V138.256C0.333313 152.497 11.8719 162.855 24.6925 162.855C37.513 162.855 51.6156 168.034 60.5901 178.391L100.334 218.528C104.18 222.411 110.59 225.001 115.719 225.001C118.283 225.001 120.847 225.001 122.129 223.706C129.822 221.118 136.232 214.644 137.514 205.581C141.36 179.686 146.488 142.14 146.488 111.067C146.488 79.9934 143.924 45.0361 138.795 17.8471C137.514 10.0788 132.385 3.60526 124.693 1.01587Z" fill="white"/>
<path d="M186.231 43.7413C183.667 38.5624 178.538 37.2677 173.411 38.5624C168.282 41.1519 167.001 46.3307 168.282 51.5096C175.974 67.0462 179.821 89.0568 179.821 112.361C179.821 135.666 175.974 156.381 168.282 173.212C165.718 178.391 168.282 183.57 173.411 186.16C174.692 187.455 175.974 187.455 177.257 187.455C181.103 187.455 183.667 184.865 186.231 182.276C195.206 164.15 200.333 139.55 200.333 113.656C200.333 86.4668 195.206 61.8673 186.231 43.7413Z" fill="white"/>
</svg>
