<svg width="200" height="172" viewBox="0 0 200 172" fill="none" xmlns="http://www.w3.org/2000/svg">
<path d="M84.6165 12.9288C82.5344 12.9288 80.7313 13.6916 79.2082 15.2131L39.184 55.2377H7.69383C5.60914 55.2377 3.8065 56.0006 2.28424 57.5211C0.761553 59.0434 0 60.8473 0 62.9303V109.082C0 111.166 0.761553 112.969 2.28424 114.491C3.80776 116.014 5.61082 116.776 7.69383 116.776H39.1823L79.2065 156.802C80.7292 158.321 82.5323 159.085 84.6149 159.085C86.6996 159.085 88.5022 158.322 90.0245 156.802C91.5471 155.28 92.3087 153.476 92.3087 151.393V20.6227C92.3087 18.5397 91.5471 16.7353 90.0261 15.2131C88.5026 13.6916 86.7012 12.9288 84.6165 12.9288Z" fill="white"/>
<path d="M133.353 103.012C136.76 97.7635 138.462 92.0958 138.462 86.0063C138.462 79.9169 136.76 74.2223 133.353 68.9331C129.946 63.6447 125.443 59.9199 119.831 57.7556C119.03 57.3561 118.028 57.1549 116.826 57.1549C114.744 57.1549 112.939 57.8967 111.417 59.3785C109.898 60.8608 109.133 62.6841 109.133 64.8471C109.133 66.5297 109.614 67.9522 110.578 69.1145C111.539 70.2773 112.7 71.2792 114.064 72.1199C115.424 72.961 116.787 73.883 118.151 74.8845C119.514 75.8864 120.675 77.3085 121.636 79.1511C122.594 80.995 123.078 83.2784 123.078 86.0034C123.078 88.7276 122.597 91.0114 121.636 92.8553C120.675 94.6996 119.514 96.12 118.151 97.124C116.787 98.1255 115.424 99.0475 114.064 99.8886C112.7 100.727 111.539 101.731 110.578 102.891C109.617 104.055 109.133 105.477 109.133 107.16C109.133 109.325 109.897 111.146 111.417 112.628C112.939 114.111 114.744 114.854 116.826 114.854C118.027 114.854 119.03 114.653 119.831 114.255C125.443 112.007 129.948 108.26 133.353 103.012Z" fill="white"/>
<path d="M159.016 119.96C165.827 109.584 169.234 98.2661 169.234 86.0059C169.234 73.7453 165.827 62.4289 159.016 52.0472C152.206 41.6721 143.187 34.1206 131.972 29.3921C130.932 28.9922 129.889 28.7914 128.85 28.7914C126.767 28.7914 124.962 29.5529 123.438 31.0756C121.917 32.5979 121.155 34.4005 121.155 36.4839C121.155 39.6093 122.718 41.9731 125.844 43.577C130.331 45.9 133.375 47.6627 134.977 48.8641C140.908 53.1918 145.534 58.6195 148.859 65.1502C152.184 71.6812 153.847 78.6325 153.847 86.0042C153.847 93.3764 152.184 100.327 148.859 106.858C145.534 113.39 140.905 118.817 134.977 123.143C133.374 124.346 130.331 126.108 125.844 128.432C122.718 130.035 121.155 132.399 121.155 135.524C121.155 137.607 121.917 139.412 123.438 140.932C124.961 142.457 126.803 143.219 128.966 143.219C129.929 143.219 130.932 143.016 131.972 142.618C143.187 137.889 152.206 130.337 159.016 119.96Z" fill="white"/>
<path d="M184.736 35.2273C174.561 19.8034 161.017 8.44369 144.109 1.1519C143.069 0.751969 142.026 0.552002 140.987 0.552002C138.904 0.552002 137.099 1.3144 135.579 2.8354C134.055 4.35724 133.292 6.16198 133.292 8.24499C133.292 11.1291 134.856 13.4942 137.982 15.3368C138.544 15.6551 139.442 16.0756 140.685 16.5981C141.927 17.1167 142.827 17.5373 143.39 17.8581C147.076 19.8598 150.362 21.9041 153.249 23.9875C163.103 31.2781 170.796 40.3729 176.325 51.2708C181.855 62.1679 184.617 73.7461 184.617 86.0067C184.617 98.2695 181.855 109.845 176.325 120.743C170.797 131.641 163.103 140.737 153.249 148.026C150.362 150.109 147.076 152.152 143.39 154.156C142.827 154.474 141.927 154.894 140.685 155.415C139.442 155.934 138.544 156.354 137.982 156.677C134.856 158.518 133.292 160.884 133.292 163.768C133.292 165.851 134.055 167.655 135.579 169.177C137.099 170.699 138.904 171.461 140.987 171.461C142.026 171.461 143.069 171.261 144.109 170.859C161.017 163.57 174.561 152.21 184.736 136.785C194.913 121.361 200 104.433 200 86.0042C200 67.5754 194.914 50.6495 184.736 35.2273Z" fill="white"/>
</svg>
